# xmcd
#
# Track frame offsets:
#	150
#	13045
#	25727
#	38302
#	50750
#	61115
#	77922
#	92677
#	104347
#	115635
#	124387
#	134017
#	144120
#
# Disc length: 2148
#
# Revision: 2
# Processed by: cddbd v1.5.1PL0 Copyright (c) Steve Scherf et al.
# Submitted via: audiograbber 1.83.01
# Normalized: r1:DSETVAR2,TDELIM( - )
#
DISCID=a408620d
DTITLE=Various Artist - Country Lovin`
DYEAR=1995
DGENRE=
TTITLE0=Bobby Bare - Loving Her Was Easier (Than Anything I`ll Ever Do Again)
TTITLE1=Bobby Bare - When Love Is Gone
TTITLE2=Glen Campbell - By The Time I Get To Phoenix
TTITLE3=Glen Campbell - Dreams Of The Everyday
TTITLE4=Johnny Cash - The Ways Of A Woman In Love
TTITLE5=Roy Clark - Then She`s A Lover
TTITLE6=Roy Clark - A Simple Thing As Love
TTITLE7=Patsy Cline - I`ve Loved And Lost Again
TTITLE8=Patsy Cline - Hungry For Love
TTITLE9=Waylon Jennings - Loves Gonna Live Here
TTITLE10=George Jones - Cause I Love You
TTITLE11=Hank Locklin - Send Me The Pillow That You Dream On
TTITLE12=Bill Anderson - This Is A Love Song
EXTD=
EXTT0=
EXTT1=
EXTT2=
EXTT3=
EXTT4=
EXTT5=
EXTT6=
EXTT7=
EXTT8=
EXTT9=
EXTT10=
EXTT11=
EXTT12=
PLAYORDER=
